<svg width="22" height="17" viewBox="0 0 22 17" fill="none" xmlns="http://www.w3.org/2000/svg">
<path fill-rule="evenodd" clip-rule="evenodd" d="M0.5 1.72727C0.5 1.08295 1.02234 0.560608 1.66667 0.560608H20.3333C20.9777 0.560608 21.5 1.08295 21.5 1.72727C21.5 2.3716 20.9777 2.89394 20.3333 2.89394H1.66667C1.02234 2.89394 0.5 2.3716 0.5 1.72727ZM0.5 8.72727C0.5 8.08293 1.02234 7.56061 1.66667 7.56061H13.3333C13.9777 7.56061 14.5 8.08293 14.5 8.72727C14.5 9.37162 13.9777 9.89394 13.3333 9.89394H1.66667C1.02234 9.89394 0.5 9.37162 0.5 8.72727ZM0.5 15.7273C0.5 15.0829 1.02234 14.5606 1.66667 14.5606H7.5C8.14433 14.5606 8.66667 15.0829 8.66667 15.7273C8.66667 16.3716 8.14433 16.8939 7.5 16.8939H1.66667C1.02234 16.8939 0.5 16.3716 0.5 15.7273Z" fill="black"/>
</svg>
