<svg width="30" height="26" viewBox="0 0 30 26" fill="none" xmlns="http://www.w3.org/2000/svg">
<path opacity="0.69" fill-rule="evenodd" clip-rule="evenodd" d="M22.7044 4.61033C22.761 4.70924 22.86 4.77989 22.9873 4.77989C26.3822 4.77989 29.1548 7.54934 29.1548 10.9405V19.3336C29.1548 22.7248 26.3822 25.4943 22.9873 25.4943H7.03111C3.62203 25.4943 0.863647 22.7248 0.863647 19.3336V10.9405C0.863647 7.54934 3.62203 4.77989 7.03111 4.77989C7.14427 4.77989 7.25744 4.72337 7.29988 4.61033L7.38475 4.44077C7.43351 4.33814 7.48355 4.23273 7.53436 4.12572C7.89624 3.36348 8.2966 2.52018 8.54468 2.02457C9.19538 0.75288 10.2987 0.0463869 11.6709 0.0322571H18.3334C19.7055 0.0463869 20.823 0.75288 21.4737 2.02457C21.6965 2.46967 22.036 3.18667 22.3631 3.87771C22.4306 4.02028 22.4976 4.16173 22.5629 4.29947L22.7044 4.61033ZM21.6718 10.0365C21.6718 10.743 22.2377 11.3082 22.9449 11.3082C23.6522 11.3082 24.2322 10.743 24.2322 10.0365C24.2322 9.33 23.6522 8.75068 22.9449 8.75068C22.2377 8.75068 21.6718 9.33 21.6718 10.0365ZM12.5613 12.2264C13.2262 11.5623 14.0891 11.209 15.0085 11.209C15.928 11.209 16.7909 11.5623 17.4416 12.2123C18.0923 12.8622 18.4459 13.7241 18.4459 14.6426C18.4318 16.536 16.904 18.0761 15.0085 18.0761C14.0891 18.0761 13.2262 17.7229 12.5755 17.0729C11.9248 16.4229 11.5712 15.561 11.5712 14.6426V14.6285C11.557 13.7383 11.9107 12.8764 12.5613 12.2264ZM18.9262 18.57C17.9219 19.5733 16.5356 20.195 15.0079 20.195C13.5226 20.195 12.1363 19.6157 11.0754 18.57C10.0286 17.5103 9.44866 16.1256 9.44866 14.6419C9.43451 13.1724 10.0145 11.7877 11.0613 10.728C12.1222 9.66823 13.5226 9.08891 15.0079 9.08891C16.4931 9.08891 17.8936 9.66823 18.9403 10.7138C19.9871 11.7736 20.5671 13.1724 20.5671 14.6419C20.5529 16.1821 19.9305 17.5668 18.9262 18.57Z" fill="black"/>
</svg>
