<svg width="10" height="11" viewBox="0 0 10 11" fill="none" xmlns="http://www.w3.org/2000/svg">
<path d="M8.99976 0.997955H2.99943C2.4479 0.997955 1.99938 1.44648 1.99938 1.99801V2.99807H0.999323C0.447792 2.99807 -0.000732422 3.44659 -0.000732422 3.99812V9.99845C-0.000732422 10.55 0.447792 10.9985 0.999323 10.9985H6.99965C7.55118 10.9985 7.99971 10.55 7.99971 9.99845V8.9984H8.99976C9.55129 8.9984 9.99982 8.54987 9.99982 7.99834V1.99801C9.99982 1.44648 9.55129 0.997955 8.99976 0.997955ZM6.99965 9.99845H0.999323V3.99812H1.99938V7.99834C1.99938 8.54987 2.4479 8.9984 2.99943 8.9984H6.99965V9.99845ZM8.99826 7.99834H2.99943V1.99801H8.99976L8.99826 7.99834Z" fill="#397CEF"/>
</svg>
