<svg width="14" height="15" viewBox="0 0 14 15" fill="none" xmlns="http://www.w3.org/2000/svg">
<g clip-path="url(#clip0_1_35)">
<path d="M4.66604 6.68148H2.3327C1.86857 6.68148 1.42345 6.4971 1.09527 6.16892C0.767077 5.84073 0.582703 5.39561 0.582703 4.93148V2.59814C0.582703 2.13402 0.767077 1.6889 1.09527 1.36071C1.42345 1.03252 1.86857 0.848145 2.3327 0.848145H4.66604C5.13017 0.848145 5.57528 1.03252 5.90347 1.36071C6.23166 1.6889 6.41604 2.13402 6.41604 2.59814V4.93148C6.41604 5.39561 6.23166 5.84073 5.90347 6.16892C5.57528 6.4971 5.13017 6.68148 4.66604 6.68148ZM2.3327 2.01481C2.17799 2.01481 2.02962 2.07627 1.92022 2.18567C1.81083 2.29506 1.74937 2.44344 1.74937 2.59814V4.93148C1.74937 5.08619 1.81083 5.23456 1.92022 5.34396C2.02962 5.45335 2.17799 5.51481 2.3327 5.51481H4.66604C4.82075 5.51481 4.96912 5.45335 5.07852 5.34396C5.18791 5.23456 5.24937 5.08619 5.24937 4.93148V2.59814C5.24937 2.44344 5.18791 2.29506 5.07852 2.18567C4.96912 2.07627 4.82075 2.01481 4.66604 2.01481H2.3327ZM11.666 6.68148H9.3327C8.86857 6.68148 8.42345 6.4971 8.09527 6.16892C7.76708 5.84073 7.5827 5.39561 7.5827 4.93148V2.59814C7.5827 2.13402 7.76708 1.6889 8.09527 1.36071C8.42345 1.03252 8.86857 0.848145 9.3327 0.848145H11.666C12.1302 0.848145 12.5753 1.03252 12.9035 1.36071C13.2317 1.6889 13.416 2.13402 13.416 2.59814V4.93148C13.416 5.39561 13.2317 5.84073 12.9035 6.16892C12.5753 6.4971 12.1302 6.68148 11.666 6.68148ZM9.3327 2.01481C9.17799 2.01481 9.02962 2.07627 8.92022 2.18567C8.81083 2.29506 8.74937 2.44344 8.74937 2.59814V4.93148C8.74937 5.08619 8.81083 5.23456 8.92022 5.34396C9.02962 5.45335 9.17799 5.51481 9.3327 5.51481H11.666C11.8207 5.51481 11.9691 5.45335 12.0785 5.34396C12.1879 5.23456 12.2494 5.08619 12.2494 4.93148V2.59814C12.2494 2.44344 12.1879 2.29506 12.0785 2.18567C11.9691 2.07627 11.8207 2.01481 11.666 2.01481H9.3327ZM4.66604 13.6815H2.3327C1.86857 13.6815 1.42345 13.4971 1.09527 13.1689C0.767077 12.8407 0.582703 12.3956 0.582703 11.9315V9.59815C0.582703 9.13402 0.767077 8.6889 1.09527 8.36071C1.42345 8.03252 1.86857 7.84815 2.3327 7.84815H4.66604C5.13017 7.84815 5.57528 8.03252 5.90347 8.36071C6.23166 8.6889 6.41604 9.13402 6.41604 9.59815V11.9315C6.41604 12.3956 6.23166 12.8407 5.90347 13.1689C5.57528 13.4971 5.13017 13.6815 4.66604 13.6815ZM2.3327 9.01481C2.17799 9.01481 2.02962 9.07627 1.92022 9.18567C1.81083 9.29506 1.74937 9.44344 1.74937 9.59815V11.9315C1.74937 12.0862 1.81083 12.2346 1.92022 12.344C2.02962 12.4534 2.17799 12.5148 2.3327 12.5148H4.66604C4.82075 12.5148 4.96912 12.4534 5.07852 12.344C5.18791 12.2346 5.24937 12.0862 5.24937 11.9315V9.59815C5.24937 9.44344 5.18791 9.29506 5.07852 9.18567C4.96912 9.07627 4.82075 9.01481 4.66604 9.01481H2.3327ZM11.666 13.6815H9.3327C8.86857 13.6815 8.42345 13.4971 8.09527 13.1689C7.76708 12.8407 7.5827 12.3956 7.5827 11.9315V9.59815C7.5827 9.13402 7.76708 8.6889 8.09527 8.36071C8.42345 8.03252 8.86857 7.84815 9.3327 7.84815H11.666C12.1302 7.84815 12.5753 8.03252 12.9035 8.36071C13.2317 8.6889 13.416 9.13402 13.416 9.59815V11.9315C13.416 12.3956 13.2317 12.8407 12.9035 13.1689C12.5753 13.4971 12.1302 13.6815 11.666 13.6815ZM9.3327 9.01481C9.17799 9.01481 9.02962 9.07627 8.92022 9.18567C8.81083 9.29506 8.74937 9.44344 8.74937 9.59815V11.9315C8.74937 12.0862 8.81083 12.2346 8.92022 12.344C9.02962 12.4534 9.17799 12.5148 9.3327 12.5148H11.666C11.8207 12.5148 11.9691 12.4534 12.0785 12.344C12.1879 12.2346 12.2494 12.0862 12.2494 11.9315V9.59815C12.2494 9.44344 12.1879 9.29506 12.0785 9.18567C11.9691 9.07627 11.8207 9.01481 11.666 9.01481H9.3327Z" fill="black"/>
</g>
<defs>
<clipPath id="clip0_1_35">
<rect width="14" height="14" fill="white" transform="translate(0 0.265411)"/>
</clipPath>
</defs>
</svg>
