<svg width="24" height="28" viewBox="0 0 24 28" fill="none" xmlns="http://www.w3.org/2000/svg">
<path fill-rule="evenodd" clip-rule="evenodd" d="M7.04719 0.561825H17.6649C21.5783 0.561825 23.7573 2.92962 23.7573 6.98681V20.728C23.7573 24.8517 21.5783 27.1663 17.6649 27.1663H7.04719C3.19587 27.1663 0.953491 24.8517 0.953491 20.728V6.98681C0.953491 2.92962 3.19587 0.561825 7.04719 0.561825ZM7.38465 6.76076C7.38833 6.76073 7.39134 6.75776 7.39134 6.75408C7.39134 6.75041 7.39432 6.74743 7.39799 6.74743H11.178C11.7241 6.74743 12.1675 7.21301 12.1675 7.78368C12.1675 8.37031 11.7241 8.83588 11.178 8.83588H7.39134C6.84531 8.83588 6.40317 8.37031 6.40317 7.79831C6.40317 7.22865 6.84171 6.76454 7.38465 6.76076ZM7.39147 14.8485H17.3238C17.8686 14.8485 18.312 14.3829 18.312 13.8109C18.312 13.2389 17.8686 12.772 17.3238 12.772H7.39147C6.84545 12.772 6.40331 13.2389 6.40331 13.8109C6.40331 14.3829 6.84545 14.8485 7.39147 14.8485ZM7.39167 20.9276H17.324C17.8295 20.8744 18.2108 20.4208 18.2108 19.89C18.2108 19.3446 17.8295 18.8924 17.324 18.8391H7.39167C7.01161 18.7992 6.64421 18.9855 6.44151 19.3313C6.23881 19.6639 6.23881 20.1029 6.44151 20.4487C6.64421 20.7813 7.01161 20.9808 7.39167 20.9276Z" fill="#EAEAEA"/>
</svg>
