<svg width="14" height="15" viewBox="0 0 14 15" fill="none" xmlns="http://www.w3.org/2000/svg">
<path d="M13.9869 4.97256L13.195 1.80331C13.0979 1.41393 12.7479 1.14093 12.3462 1.14093H1.65463C1.253 1.14093 0.903 1.41393 0.805 1.80331L0.013125 4.97256C0.004375 5.00668 0 5.04256 0 5.07843C0 6.28418 0.931875 7.26593 2.07812 7.26593C2.744 7.26593 3.33812 6.93431 3.71875 6.41981C4.09937 6.93431 4.6935 7.26593 5.35938 7.26593C6.02525 7.26593 6.61938 6.93431 7 6.41981C7.38062 6.93431 7.97388 7.26593 8.64062 7.26593C9.30737 7.26593 9.90063 6.93431 10.2812 6.41981C10.6619 6.93431 11.2551 7.26593 11.9219 7.26593C13.0681 7.26593 14 6.28418 14 5.07843C14 5.04256 13.9956 5.00668 13.9869 4.97256Z" fill="#4285F4"/>
<path d="M11.9193 8.14083C11.3234 8.14083 10.7573 7.95883 10.2786 7.62633C9.32138 8.2922 7.95463 8.2922 6.99738 7.62633C6.04013 8.2922 4.67338 8.2922 3.71613 7.62633C3.2375 7.95883 2.67138 8.14083 2.0755 8.14083C1.64588 8.14083 1.24075 8.0402 0.872375 7.8687V12.5158C0.872375 12.9988 1.26438 13.3908 1.74738 13.3908H5.24738V9.89083H8.74738V13.3908H12.2474C12.7304 13.3908 13.1224 12.9988 13.1224 12.5158V7.8687C12.754 8.0402 12.3489 8.14083 11.9193 8.14083Z" fill="#4285F4"/>
</svg>
