<svg width="14" height="15" viewBox="0 0 14 15" fill="none" xmlns="http://www.w3.org/2000/svg">
<g clip-path="url(#clip0_52_52)">
<path d="M2.52281 12.0617C2.66281 12.0617 2.69081 12.0477 2.81681 12.0197L5.3368 11.5157C5.6028 11.4457 5.8688 11.3197 6.0788 11.1097L12.1828 5.00567C13.1208 4.06767 13.1208 2.45767 12.1828 1.51967L11.6648 0.973672C10.7268 0.0356721 9.1028 0.0356721 8.1648 0.973672L2.06081 7.09167C1.86481 7.28767 1.72481 7.56767 1.65481 7.83367L1.12281 10.3817C1.05281 10.8577 1.19281 11.3197 1.52881 11.6557C1.79481 11.9217 2.18681 12.0617 2.52281 12.0617ZM2.99881 8.09967L9.1028 1.98167C9.5088 1.57567 10.2508 1.57567 10.6428 1.98167L11.1748 2.51367C11.6508 2.98967 11.6508 3.66167 11.1748 4.12367L5.0848 10.2417L2.49481 10.6757L2.99881 8.09967Z" fill="#030229"/>
<path d="M12.1285 12.9303H1.79654C1.39054 12.9303 1.12454 13.1963 1.12454 13.6023C1.12454 14.0083 1.46054 14.2743 1.79654 14.2743H12.0725C12.4785 14.2743 12.8145 14.0083 12.8145 13.6023C12.8005 13.1963 12.4645 12.9303 12.1285 12.9303Z" fill="#030229"/>
</g>
<defs>
<clipPath id="clip0_52_52">
<rect width="14" height="14" fill="white" transform="translate(0 0.272705)"/>
</clipPath>
</defs>
</svg>
