<svg width="14" height="15" viewBox="0 0 14 15" fill="none" xmlns="http://www.w3.org/2000/svg">
<g clip-path="url(#clip0_1_52)">
<path d="M10.5 1.43208C11.7868 1.43208 12.8333 2.47858 12.8333 3.76541V10.7654C12.8333 12.0522 11.7868 13.0987 10.5 13.0987H3.5C2.21317 13.0987 1.16667 12.0522 1.16667 10.7654V3.76541C1.16667 2.47858 2.21317 1.43208 3.5 1.43208H10.5ZM10.5 0.265411H3.5C1.56683 0.265411 0 1.83224 0 3.76541V10.7654C0 12.6986 1.56683 14.2654 3.5 14.2654H10.5C12.4332 14.2654 14 12.6986 14 10.7654V3.76541C14 1.83224 12.4332 0.265411 10.5 0.265411Z" fill="black"/>
<path d="M9.91667 7.84936H4.08333C3.76133 7.84936 3.5 7.58803 3.5 7.26603C3.5 6.94403 3.76133 6.68269 4.08333 6.68269H9.91667C10.2392 6.68269 10.5 6.94403 10.5 7.26603C10.5 7.58803 10.2392 7.84936 9.91667 7.84936Z" fill="black"/>
<path d="M9.91667 4.93208H4.08333C3.76133 4.93208 3.5 4.67074 3.5 4.34874C3.5 4.02674 3.76133 3.76541 4.08333 3.76541H9.91667C10.2392 3.76541 10.5 4.02674 10.5 4.34874C10.5 4.67074 10.2392 4.93208 9.91667 4.93208Z" fill="black"/>
<path d="M9.91667 10.7648H4.08333C3.76133 10.7648 3.5 10.504 3.5 10.1815C3.5 9.85888 3.76133 9.59813 4.08333 9.59813H9.91667C10.2392 9.59813 10.5 9.85888 10.5 10.1815C10.5 10.504 10.2392 10.7648 9.91667 10.7648Z" fill="black"/>
</g>
<defs>
<clipPath id="clip0_1_52">
<rect width="14" height="14" fill="white" transform="translate(0 0.265411)"/>
</clipPath>
</defs>
</svg>
