<svg width="21" height="21" viewBox="0 0 21 21" fill="none" xmlns="http://www.w3.org/2000/svg">
<circle cx="10.4978" cy="10.138" r="10.135" fill="white"/>
<path fill-rule="evenodd" clip-rule="evenodd" d="M8.81629 6.46204C8.71032 6.60517 8.72249 6.80933 8.85637 6.9389C8.9989 7.08142 9.23168 7.08142 9.37421 6.9389L10.1296 6.17878V8.14559H10.8612V6.17878L11.6166 6.9389L11.6575 6.97424C11.8007 7.08025 12.0048 7.06847 12.1344 6.9389C12.2057 6.86764 12.2437 6.77262 12.2437 6.67761C12.2437 6.58734 12.2057 6.49233 12.1344 6.42107L10.7519 5.03384L10.7088 4.99512C10.6474 4.9489 10.5714 4.92458 10.4954 4.92458C10.3956 4.92458 10.3054 4.96258 10.2341 5.03384L8.85162 6.42107L8.81629 6.46204ZM7.75466 8.14803C6.63669 8.20083 5.74454 9.14128 5.74454 10.287V12.6458L5.74684 12.7468C5.79874 13.8845 6.72333 14.7968 7.85863 14.7968H13.1367L13.2359 14.7944C14.3539 14.7416 15.2461 13.801 15.2461 12.6506V10.2967L15.2438 10.1953C15.1916 9.0534 14.2627 8.14569 13.132 8.14569H10.8611V11.0459L10.8577 11.0969C10.8332 11.28 10.6782 11.4181 10.4953 11.4181C10.291 11.4181 10.1295 11.2537 10.1295 11.0459V8.14569H7.85388L7.75466 8.14803Z" fill="#000C19"/>
</svg>
