<svg width="70" height="14" viewBox="0 0 70 14" fill="none" xmlns="http://www.w3.org/2000/svg">
<path d="M6.93907 4.83188C7.99708 4.83188 8.85476 3.97409 8.85476 2.91594C8.85476 1.8578 7.99708 1 6.93907 1C5.88106 1 5.02338 1.8578 5.02338 2.91594C5.02338 3.97409 5.88106 4.83188 6.93907 4.83188Z" stroke="black" stroke-width="1.05545"/>
<path fill-rule="evenodd" clip-rule="evenodd" d="M10.8649 2.9631H2.96502C1.87869 2.9631 0.998047 3.84375 0.998047 4.93008V9.66671C0.998047 11.6539 2.60898 13.2648 4.59616 13.2648H9.23374C11.2209 13.2648 12.8319 11.6539 12.8319 9.66671V4.93008C12.8319 3.84375 11.9512 2.9631 10.8649 2.9631ZM6.91596 11.0849C8.55692 11.0849 9.8871 9.7545 9.8871 8.11349H8.83165C8.83165 9.17169 7.97392 10.0294 6.91596 10.0294C5.858 10.0294 5.00027 9.17169 5.00027 8.11349H3.94482C3.94482 9.7545 5.27499 11.0849 6.91596 11.0849Z" fill="black"/>
<path d="M25.8445 12.6329C25.0313 12.6329 24.3026 12.5035 23.6584 12.2446C23.0142 11.9857 22.4967 11.6026 22.1059 11.0952C21.7257 10.5878 21.525 9.97681 21.5039 9.2623H24.3871C24.4293 9.66615 24.5719 9.97681 24.8148 10.1943C25.0577 10.4014 25.3746 10.5049 25.7653 10.5049C26.1667 10.5049 26.4835 10.4169 26.7158 10.2409C26.9482 10.0545 27.0644 9.80077 27.0644 9.47976C27.0644 9.21053 26.9693 8.98789 26.7792 8.81185C26.5997 8.63581 26.3726 8.49084 26.098 8.37693C25.834 8.26303 25.4538 8.13359 24.9574 7.98861C24.2392 7.77115 23.6531 7.55369 23.199 7.33624C22.7448 7.11878 22.3541 6.79777 22.0267 6.3732C21.6993 5.94864 21.5356 5.39464 21.5356 4.7112C21.5356 3.69639 21.9105 2.90422 22.6604 2.33468C23.4102 1.75479 24.3871 1.46484 25.5911 1.46484C26.8162 1.46484 27.8036 1.75479 28.5535 2.33468C29.3033 2.90422 29.7047 3.70156 29.7575 4.72673H26.8267C26.8056 4.37465 26.6736 4.10024 26.4307 3.90349C26.1878 3.69639 25.8762 3.59283 25.496 3.59283C25.1686 3.59283 24.9046 3.68085 24.7039 3.85689C24.5033 4.02258 24.4029 4.26592 24.4029 4.58693C24.4029 4.93901 24.5719 5.21342 24.9099 5.41017C25.2478 5.60692 25.7759 5.8192 26.4941 6.04701C27.2122 6.28518 27.7931 6.513 28.2366 6.73046C28.6908 6.94792 29.0815 7.26375 29.4089 7.67796C29.7363 8.09216 29.9 8.62546 29.9 9.27783C29.9 9.89914 29.7363 10.4635 29.4089 10.9709C29.0921 11.4783 28.6274 11.8822 28.0149 12.1825C27.4023 12.4828 26.6789 12.6329 25.8445 12.6329Z" fill="black"/>
<path d="M36.288 10.2719V12.5242H34.9097C33.9275 12.5242 33.1619 12.2912 32.6127 11.8252C32.0635 11.3489 31.7889 10.5774 31.7889 9.51083V6.06255H30.7117V3.85689H31.7889V1.74443H34.4979V3.85689H36.2721V6.06255H34.4979V9.54189C34.4979 9.80077 34.5612 9.98717 34.688 10.1011C34.8147 10.215 35.0259 10.2719 35.3216 10.2719H36.288Z" fill="black"/>
<path d="M41.6148 12.6484C40.7487 12.6484 39.9672 12.4672 39.2702 12.1048C38.5837 11.7424 38.0398 11.2246 37.6385 10.5515C37.2477 9.87844 37.0523 9.09144 37.0523 8.19054C37.0523 7.29999 37.253 6.51818 37.6543 5.84509C38.0556 5.16165 38.6048 4.63871 39.3019 4.27628C39.9989 3.91385 40.7804 3.73263 41.6464 3.73263C42.5125 3.73263 43.294 3.91385 43.991 4.27628C44.6881 4.63871 45.2372 5.16165 45.6386 5.84509C46.0399 6.51818 46.2405 7.29999 46.2405 8.19054C46.2405 9.08109 46.0346 9.86808 45.6227 10.5515C45.2214 11.2246 44.6669 11.7424 43.9593 12.1048C43.2623 12.4672 42.4808 12.6484 41.6148 12.6484ZM41.6148 10.3496C42.1323 10.3496 42.5705 10.1632 42.9296 9.79042C43.2993 9.41763 43.4841 8.88434 43.4841 8.19054C43.4841 7.49674 43.3045 6.96345 42.9455 6.59066C42.5969 6.21788 42.1639 6.03148 41.6464 6.03148C41.1184 6.03148 40.6801 6.21788 40.3316 6.59066C39.9831 6.95309 39.8088 7.48639 39.8088 8.19054C39.8088 8.88434 39.9778 9.41763 40.3157 9.79042C40.6643 10.1632 41.0973 10.3496 41.6148 10.3496Z" fill="black"/>
<path d="M50.1807 5.30144C50.4975 4.8251 50.8936 4.45232 51.3688 4.18308C51.8441 3.90349 52.3721 3.7637 52.953 3.7637V6.57513H52.2084C51.5325 6.57513 51.0256 6.7201 50.6876 7.01005C50.3497 7.28964 50.1807 7.78669 50.1807 8.50119V12.5242H47.4717V3.85689H50.1807V5.30144Z" fill="black"/>
<path d="M62.3746 8.05074C62.3746 8.29927 62.3588 8.55815 62.3271 8.82738H56.1963C56.2386 9.36585 56.4128 9.78006 56.7191 10.07C57.036 10.3496 57.4214 10.4894 57.8756 10.4894C58.5515 10.4894 59.0215 10.2098 59.2855 9.65062H62.1687C62.0208 10.2202 61.7515 10.7327 61.3608 11.1884C60.9805 11.644 60.5 12.0012 59.9192 12.2601C59.3383 12.519 58.6888 12.6484 57.9706 12.6484C57.1046 12.6484 56.3336 12.4672 55.6577 12.1048C54.9818 11.7424 54.4538 11.2246 54.0736 10.5515C53.6933 9.87844 53.5032 9.09144 53.5032 8.19054C53.5032 7.28964 53.6881 6.50264 54.0577 5.82956C54.4379 5.15647 54.966 4.63871 55.6419 4.27628C56.3178 3.91385 57.094 3.73263 57.9706 3.73263C58.8261 3.73263 59.5865 3.90867 60.2518 4.26075C60.9172 4.61282 61.4347 5.11505 61.8043 5.76742C62.1845 6.4198 62.3746 7.18091 62.3746 8.05074ZM59.6023 7.35177C59.6023 6.89614 59.4439 6.53371 59.1271 6.26447C58.8102 5.99524 58.4142 5.86062 57.9389 5.86062C57.4848 5.86062 57.0993 5.99006 56.7825 6.24894C56.4762 6.50782 56.2861 6.87543 56.2122 7.35177H59.6023Z" fill="black"/>
<path d="M66.1325 10.3341H69.9662V12.5242H63.1067V10.4117L66.782 6.04701H63.1384V3.85689H69.887V5.96935L66.1325 10.3341Z" fill="black"/>
</svg>
