<svg width="24" height="23" viewBox="0 0 24 23" fill="none" xmlns="http://www.w3.org/2000/svg">
<path d="M12 22.5683C11.7514 22.5683 11.5129 22.4695 11.3371 22.2937C11.1613 22.1179 11.0625 21.8794 11.0625 21.6308V1.00577C11.0625 0.757127 11.1613 0.518671 11.3371 0.342855C11.5129 0.16704 11.7514 0.0682678 12 0.0682678C12.2486 0.0682678 12.4871 0.16704 12.6629 0.342855C12.8387 0.518671 12.9375 0.757127 12.9375 1.00577V21.6308C12.9375 21.8794 12.8387 22.1179 12.6629 22.2937C12.4871 22.4695 12.2486 22.5683 12 22.5683Z" fill="black"/>
<path d="M22.3125 12.2558H1.6875C1.43886 12.2558 1.2004 12.157 1.02459 11.9812C0.848772 11.8054 0.75 11.5669 0.75 11.3183C0.75 11.0696 0.848772 10.8312 1.02459 10.6554C1.2004 10.4795 1.43886 10.3808 1.6875 10.3808H22.3125C22.5611 10.3808 22.7996 10.4795 22.9754 10.6554C23.1512 10.8312 23.25 11.0696 23.25 11.3183C23.25 11.5669 23.1512 11.8054 22.9754 11.9812C22.7996 12.157 22.5611 12.2558 22.3125 12.2558Z" fill="black"/>
</svg>
