<svg width="30" height="31" viewBox="0 0 30 31" fill="none" xmlns="http://www.w3.org/2000/svg">
<path d="M27.5001 17.2046C27.1685 17.2046 26.8506 17.3363 26.6162 17.5707C26.3818 17.8052 26.2501 18.1231 26.2501 18.4546V23.7209C26.2491 24.6445 25.8817 25.53 25.2286 26.1831C24.5755 26.8363 23.69 27.2036 22.7663 27.2046H7.23381C6.31017 27.2036 5.42464 26.8363 4.77152 26.1831C4.11841 25.53 3.75105 24.6445 3.75006 23.7209V18.4546C3.75006 18.1231 3.61837 17.8052 3.38394 17.5707C3.14952 17.3363 2.83158 17.2046 2.50006 17.2046C2.16854 17.2046 1.8506 17.3363 1.61618 17.5707C1.38176 17.8052 1.25006 18.1231 1.25006 18.4546V23.7209C1.25172 25.3073 1.88268 26.8284 3.00449 27.9502C4.1263 29.072 5.64733 29.703 7.23381 29.7046H22.7663C24.3528 29.703 25.8738 29.072 26.9956 27.9502C28.1174 26.8284 28.7484 25.3073 28.7501 23.7209V18.4546C28.7501 18.1231 28.6184 17.8052 28.3839 17.5707C28.1495 17.3363 27.8316 17.2046 27.5001 17.2046Z" fill="black"/>
<path d="M8.38371 11.8383L13.75 6.4721V22.2046C13.75 22.5361 13.8817 22.8541 14.1161 23.0885C14.3505 23.3229 14.6684 23.4546 15 23.4546C15.3315 23.4546 15.6494 23.3229 15.8838 23.0885C16.1183 22.8541 16.25 22.5361 16.25 22.2046V6.4721L21.6162 11.8383C21.852 12.066 22.1677 12.192 22.4955 12.1892C22.8232 12.1863 23.1367 12.0549 23.3685 11.8231C23.6002 11.5914 23.7317 11.2778 23.7346 10.9501C23.7374 10.6224 23.6114 10.3066 23.3837 10.0708L15.8837 2.57085C15.6493 2.33651 15.3314 2.20486 15 2.20486C14.6685 2.20486 14.3506 2.33651 14.1162 2.57085L6.61621 10.0708C6.38851 10.3066 6.26252 10.6224 6.26537 10.9501C6.26822 11.2778 6.39968 11.5914 6.63144 11.8231C6.8632 12.0549 7.17671 12.1863 7.50446 12.1892C7.8322 12.192 8.14796 12.066 8.38371 11.8383Z" fill="black"/>
</svg>
